<svg preserveAspectRatio="none" overflow="visible" style="display: block;" width="151.154" height="12.3606" viewBox="0 0 151.154 12.3606" fill="none" xmlns="http://www.w3.org/2000/svg">
<path id="Vector" opacity="0.7" d="M28.1238 11.3275C24.7259 10.4866 1.9647 12.5326 0.500449 12.3489C-0.875438 12.0432 0.894645 5.41985 2.09932 4.39278C2.52597 4.02863 3.03683 3.93429 4.22356 4.05127C5.47449 4.17454 18.5527 3.37012 30.2488 2.67954C30.2488 2.67954 68.8468 1.23486 74.7832 1.05813C76.8101 0.997747 75.2133 1.42102 77.5978 1.23296C82.6781 0.832325 93.766 1.04114 97.6106 0.663769C100.694 0.361247 101.357 0.345524 104.32 0.566284C106.894 0.75874 123.41 0.536105 125.269 0.0662844C125.721 -0.0481833 126.062 -0.00792681 126.063 0.137359C126.063 0.137359 134.162 0.314077 136.944 0.452445C137.259 0.468169 137.441 0.486425 137.447 0.50089C137.533 0.646805 137.874 0.715979 138.197 0.624153C138.786 0.456854 150.862 0.119749 151.052 0.546802C151.6 1.77198 149.838 6.86767 148.434 8.11109C146.971 9.40608 139.266 7.79473 132.849 8.53374C99.6065 8.33499 103.558 8.4935 97.2116 9.02936C96.4895 8.59602 93.7336 9.68659 92.0443 8.94633C91.3373 8.63626 86.3391 8.6501 85.2352 8.97903C84.4275 9.21992 58.9284 8.97841 56.1014 9.9822C50.8815 9.31426 30.7002 11.1407 28.1238 11.3275Z" fill="#D1EBC4"/>
</svg>
