<svg width="16" height="16" viewBox="0 0 16 16" fill="none" xmlns="http://www.w3.org/2000/svg">
<path d="M12.6667 1H3.33333C2.59333 1 2 1.6 2 2.33333V11.6667C2 12.4 2.59333 13 3.33333 13H6L8 15L10 13H12.6667C13.4 13 14 12.4 14 11.6667V2.33333C14 1.6 13.4 1 12.6667 1ZM12.6667 11.6667H9.44667L8 13.1133L6.55333 11.6667H3.33333V2.33333H12.6667V11.6667ZM7.33333 9.66667H8.66667V11H7.33333V9.66667ZM8 4.33333C8.73333 4.33333 9.33333 4.93333 9.33333 5.66667C9.33333 7 7.33333 6.83333 7.33333 9H8.66667C8.66667 7.5 10.6667 7.33333 10.6667 5.66667C10.6667 4.19333 9.47333 3 8 3C6.52667 3 5.33333 4.19333 5.33333 5.66667H6.66667C6.66667 4.93333 7.26667 4.33333 8 4.33333Z" fill="#1C416C"/>
</svg>
