<svg preserveAspectRatio="none" overflow="visible" style="display: block;" width="107.349" height="12.5" viewBox="0 0 107.349 12.5" fill="none" xmlns="http://www.w3.org/2000/svg">
<path id="Vector" d="M4.08325 9.49708H2.61233V1.81883H0V0.573749H6.6895V1.81883H4.08325V9.49708ZM9.55283 0V2.3865C9.55283 2.63467 9.54467 2.87683 9.52842 3.11283C9.51625 3.34883 9.502 3.53192 9.48567 3.66208H9.56508C9.7075 3.42608 9.88242 3.23283 10.0899 3.08225C10.2975 2.92767 10.5294 2.81167 10.7858 2.73442C11.0462 2.65708 11.3228 2.61842 11.6158 2.61842C12.1326 2.61842 12.5721 2.70592 12.9342 2.88083C13.2963 3.05175 13.573 3.31825 13.7643 3.68042C13.9596 4.04258 14.0573 4.51258 14.0573 5.09033V9.49708H12.6229V5.35891C12.6229 4.834 12.5151 4.44133 12.2994 4.18092C12.0838 3.91642 11.7501 3.78417 11.2984 3.78417C10.8631 3.78417 10.5172 3.87575 10.2608 4.05883C10.0086 4.23791 9.8275 4.50442 9.71767 4.85842C9.60775 5.20833 9.55283 5.63558 9.55283 6.14016V9.49708H8.1185V0H9.55283ZM18.9653 2.61233C19.5675 2.61233 20.0843 2.73642 20.5156 2.98467C20.9469 3.23283 21.2785 3.58483 21.5104 4.0405C21.7423 4.49625 21.8583 5.0415 21.8583 5.67625V6.44533H17.3478C17.3641 7.10041 17.5391 7.605 17.8728 7.959C18.2105 8.313 18.6825 8.49 19.2888 8.49C19.7201 8.49 20.1067 8.44933 20.4484 8.36792C20.7943 8.2825 21.1503 8.15842 21.5166 7.99558V9.16141C21.1788 9.32008 20.835 9.43608 20.4851 9.50925C20.1351 9.5825 19.716 9.61917 19.2278 9.61917C18.5645 9.61917 17.9806 9.491 17.476 9.23467C16.9755 8.97425 16.5828 8.58766 16.298 8.075C16.0173 7.56225 15.8769 6.9255 15.8769 6.16458C15.8769 5.40775 16.0051 4.76483 16.2614 4.23583C16.5178 3.70692 16.8778 3.30408 17.3418 3.02733C17.8056 2.75067 18.3468 2.61233 18.9653 2.61233ZM18.9653 3.69266C18.5136 3.69266 18.1474 3.83908 17.8667 4.13208C17.5899 4.42508 17.4272 4.85433 17.3783 5.41992H20.4545C20.4505 5.08217 20.3935 4.78317 20.2837 4.52275C20.1778 4.26233 20.0151 4.05883 19.7953 3.91233C19.5797 3.76592 19.303 3.69266 18.9653 3.69266ZM30.8871 4.65092H34.2196V9.13083C33.7517 9.2855 33.2674 9.4055 32.7669 9.491C32.2665 9.57641 31.7049 9.61917 31.0824 9.61917C30.175 9.61917 29.4059 9.44008 28.7753 9.08208C28.1486 8.71991 27.6726 8.197 27.347 7.51341C27.0215 6.82575 26.8588 5.99775 26.8588 5.02933C26.8588 4.0975 27.0398 3.28983 27.402 2.60625C27.7641 1.91858 28.291 1.38758 28.9828 1.01317C29.6745 0.634751 30.5128 0.445582 31.4974 0.445582C31.9817 0.445582 32.4496 0.494416 32.9013 0.592082C33.3569 0.685666 33.774 0.815833 34.1524 0.982666L33.6398 2.19117C33.3387 2.04875 33.0009 1.92875 32.6266 1.83108C32.2523 1.73342 31.8637 1.68458 31.4608 1.68458C30.822 1.68458 30.2706 1.82292 29.8068 2.09958C29.3469 2.37633 28.9929 2.76692 28.7448 3.2715C28.4965 3.772 28.3724 4.364 28.3724 5.04758C28.3724 5.71083 28.4721 6.29275 28.6715 6.79325C28.8708 7.29375 29.1822 7.68433 29.6053 7.96508C30.0326 8.24183 30.5839 8.38016 31.2594 8.38016C31.5971 8.38016 31.884 8.36183 32.12 8.32525C32.356 8.28858 32.5737 8.24792 32.7731 8.20317V5.90208H30.8871V4.65092ZM39.8418 2.61233C39.9557 2.61233 40.0798 2.61842 40.2141 2.63067C40.3483 2.64283 40.4643 2.65908 40.5619 2.67942L40.4277 4.02225C40.3423 3.99783 40.2364 3.9795 40.1103 3.96733C39.9883 3.95508 39.8783 3.949 39.7807 3.949C39.5243 3.949 39.2803 3.99175 39.0483 4.07717C38.8163 4.15858 38.6108 4.28467 38.4318 4.45558C38.2528 4.62242 38.1124 4.832 38.0107 5.08425C37.9089 5.3365 37.8581 5.6295 37.8581 5.96317V9.49708H36.4177V2.7405H37.5408L37.736 3.93067H37.8032C37.9374 3.69058 38.1043 3.47092 38.3037 3.2715C38.503 3.07208 38.7309 2.91342 38.9873 2.79542C39.2477 2.67333 39.5325 2.61233 39.8418 2.61233ZM44.7132 2.61233C45.3153 2.61233 45.8322 2.73642 46.2634 2.98467C46.6948 3.23283 47.0264 3.58483 47.2583 4.0405C47.4903 4.49625 47.6063 5.0415 47.6063 5.67625V6.44533H43.0958C43.112 7.10041 43.287 7.605 43.6207 7.959C43.9583 8.313 44.4303 8.49 45.0367 8.49C45.4679 8.49 45.8545 8.44933 46.1963 8.36792C46.5422 8.2825 46.8982 8.15842 47.2644 7.99558V9.16141C46.9267 9.32008 46.5828 9.43608 46.2329 9.50925C45.883 9.5825 45.4639 9.61917 44.9756 9.61917C44.3123 9.61917 43.7284 9.491 43.2239 9.23467C42.7234 8.97425 42.3308 8.58766 42.0459 8.075C41.7652 7.56225 41.6248 6.9255 41.6248 6.16458C41.6248 5.40775 41.7529 4.76483 42.0093 4.23583C42.2657 3.70692 42.6258 3.30408 43.0896 3.02733C43.5535 2.75067 44.0947 2.61233 44.7132 2.61233ZM44.7132 3.69266C44.2615 3.69266 43.8953 3.83908 43.6145 4.13208C43.3378 4.42508 43.1751 4.85433 43.1263 5.41992H46.2024C46.1983 5.08217 46.1414 4.78317 46.0315 4.52275C45.9257 4.26233 45.763 4.05883 45.5433 3.91233C45.3276 3.76592 45.0509 3.69266 44.7132 3.69266ZM52.0809 2.61233C52.9354 2.61233 53.5803 2.8015 54.0157 3.17992C54.4552 3.55833 54.6749 4.14833 54.6749 4.95V9.49708H53.6556L53.381 8.53883H53.3322C53.1409 8.783 52.9436 8.98441 52.7401 9.14308C52.5367 9.30175 52.3007 9.41975 52.0321 9.49708C51.7676 9.5785 51.4441 9.61917 51.0617 9.61917C50.6588 9.61917 50.2987 9.54592 49.9813 9.39942C49.6639 9.24883 49.4137 9.021 49.2306 8.71583C49.0475 8.41067 48.9559 8.02408 48.9559 7.55616C48.9559 6.86033 49.2143 6.3375 49.7311 5.98758C50.2519 5.63767 51.0373 5.44433 52.087 5.40775L53.2589 5.365V5.011C53.2589 4.54308 53.149 4.20942 52.9293 4.01C52.7137 3.81067 52.4085 3.71091 52.0138 3.71091C51.6761 3.71091 51.3485 3.75975 51.0311 3.85742C50.7138 3.95508 50.4045 4.07517 50.1034 4.21758L49.6395 3.20433C49.9691 3.02942 50.3434 2.887 50.7626 2.77708C51.1858 2.66725 51.6252 2.61233 52.0809 2.61233ZM53.2528 6.26833L52.38 6.29883C51.6638 6.32325 51.1613 6.44533 50.8724 6.66508C50.5835 6.88475 50.4391 7.18592 50.4391 7.56833C50.4391 7.902 50.5388 8.14616 50.7382 8.30083C50.9375 8.45133 51.2 8.52658 51.5255 8.52658C52.0219 8.52658 52.4329 8.38625 52.7584 8.1055C53.088 7.82067 53.2528 7.40358 53.2528 6.85425V6.26833ZM59.4059 8.4595C59.5931 8.4595 59.7783 8.44325 59.9613 8.41067C60.1445 8.374 60.3113 8.33133 60.4618 8.2825V9.36891C60.3032 9.43808 60.0977 9.49708 59.8454 9.54592C59.5931 9.59475 59.3307 9.61917 59.0581 9.61917C58.6756 9.61917 58.3318 9.55608 58.0266 9.42991C57.7214 9.29975 57.4793 9.078 57.3003 8.76467C57.1212 8.45133 57.0317 8.018 57.0317 7.46458V3.833H56.1101V3.19217L57.0988 2.68558L57.5688 1.239H58.4721V2.7405H60.4069V3.833H58.4721V7.44633C58.4721 7.78808 58.5576 8.04242 58.7284 8.20925C58.8993 8.37608 59.1252 8.4595 59.4059 8.4595ZM69.2464 4.65092H72.579V9.13083C72.111 9.2855 71.6268 9.4055 71.1263 9.491C70.6258 9.57641 70.0643 9.61917 69.4417 9.61917C68.5343 9.61917 67.7653 9.44008 67.1346 9.08208C66.508 8.71991 66.0319 8.197 65.7064 7.51341C65.3809 6.82575 65.2181 5.99775 65.2181 5.02933C65.2181 4.0975 65.3992 3.28983 65.7613 2.60625C66.1235 1.91858 66.6504 1.38758 67.3422 1.01317C68.0339 0.634751 68.8721 0.445582 69.8568 0.445582C70.341 0.445582 70.8089 0.494416 71.2606 0.592082C71.7163 0.685666 72.1334 0.815833 72.5118 0.982666L71.9992 2.19117C71.698 2.04875 71.3603 1.92875 70.9859 1.83108C70.6116 1.73342 70.223 1.68458 69.8202 1.68458C69.1813 1.68458 68.63 1.82292 68.1661 2.09958C67.7063 2.37633 67.3523 2.76692 67.1041 3.2715C66.8559 3.772 66.7318 4.364 66.7318 5.04758C66.7318 5.71083 66.8315 6.29275 67.0308 6.79325C67.2303 7.29375 67.5415 7.68433 67.9647 7.96508C68.3919 8.24183 68.9433 8.38016 69.6187 8.38016C69.9565 8.38016 70.2433 8.36183 70.4793 8.32525C70.7153 8.28858 70.9331 8.24792 71.1324 8.20317V5.90208H69.2464V4.65092ZM77.4261 2.61233C78.2803 2.61233 78.9253 2.8015 79.3611 3.17992C79.8003 3.55833 80.0203 4.14833 80.0203 4.95V9.49708H79.0011L78.7261 8.53883H78.6769C78.4861 8.783 78.2886 8.98441 78.0853 9.14308C77.8819 9.30175 77.6461 9.41975 77.3769 9.49708C77.1127 9.5785 76.7894 9.61917 76.4069 9.61917C76.0036 9.61917 75.6436 9.54592 75.3261 9.39942C75.0086 9.24883 74.7586 9.021 74.5752 8.71583C74.3927 8.41067 74.3011 8.02408 74.3011 7.55616C74.3011 6.86033 74.5594 6.3375 75.0761 5.98758C75.5969 5.63767 76.3819 5.44433 77.4319 5.40775L78.6036 5.365V5.011C78.6036 4.54308 78.4944 4.20942 78.2744 4.01C78.0586 3.81067 77.7536 3.71091 77.3586 3.71091C77.0211 3.71091 76.6936 3.75975 76.3761 3.85742C76.0586 3.95508 75.7494 4.07517 75.4486 4.21758L74.9844 3.20433C75.3144 3.02942 75.6886 2.887 76.1078 2.77708C76.5311 2.66725 76.9703 2.61233 77.4261 2.61233ZM78.5978 6.26833L77.7252 6.29883C77.0086 6.32325 76.5061 6.44533 76.2178 6.66508C75.9286 6.88475 75.7844 7.18592 75.7844 7.56833C75.7844 7.902 75.8836 8.14616 76.0836 8.30083C76.2827 8.45133 76.5452 8.52658 76.8702 8.52658C77.3669 8.52658 77.7778 8.38625 78.1036 8.1055C78.4328 7.82067 78.5978 7.40358 78.5978 6.85425V6.26833ZM84.7511 8.4595C84.9386 8.4595 85.1236 8.44325 85.3061 8.41067C85.4894 8.374 85.6561 8.33133 85.8069 8.2825V9.36891C85.6486 9.43808 85.4428 9.49708 85.1903 9.54592C84.9386 9.59475 84.6761 9.61917 84.4027 9.61917C84.0202 9.61917 83.6769 9.55608 83.3719 9.42991C83.0661 9.29975 82.8244 9.078 82.6453 8.76467C82.4661 8.45133 82.3769 8.018 82.3769 7.46458V3.833H81.4553V3.19217L82.4436 2.68558L82.9136 1.239H83.8169V2.7405H85.7519V3.833H83.8169V7.44633C83.8169 7.78808 83.9028 8.04242 84.0736 8.20925C84.2444 8.37608 84.4702 8.4595 84.7511 8.4595ZM91.9294 7.56833C91.9294 8.01192 91.8219 8.38625 91.6061 8.69141C91.3903 8.99658 91.0753 9.2285 90.6603 9.38725C90.2494 9.54183 89.7444 9.61917 89.1461 9.61917C88.6744 9.61917 88.2678 9.58458 87.9253 9.51541C87.5878 9.45025 87.2686 9.34858 86.9678 9.21025V7.97117C87.2886 8.12175 87.6486 8.252 88.0478 8.36183C88.4503 8.47166 88.8311 8.52658 89.1894 8.52658C89.6611 8.52658 90.0011 8.45342 90.2086 8.30692C90.4161 8.15633 90.5194 7.957 90.5194 7.70875C90.5194 7.56225 90.4769 7.43208 90.3911 7.31817C90.3103 7.20017 90.1553 7.08008 89.9278 6.958C89.7036 6.83191 89.3744 6.68133 88.9386 6.50633C88.5119 6.3355 88.1511 6.16458 87.8586 5.99366C87.5653 5.82275 87.3436 5.61725 87.1936 5.37725C87.0427 5.13308 86.9678 4.82175 86.9678 4.44333C86.9678 3.84525 87.2036 3.3915 87.6753 3.08225C88.1511 2.769 88.7803 2.61233 89.5611 2.61233C89.9761 2.61233 90.3669 2.65508 90.7336 2.7405C91.1036 2.82183 91.4661 2.94192 91.8194 3.10058L91.3678 4.18092C91.0628 4.04667 90.7552 3.93675 90.4461 3.85133C90.1411 3.76183 89.8303 3.71708 89.5128 3.71708C89.1419 3.71708 88.8594 3.774 88.6644 3.88792C88.4727 4.00192 88.3769 4.16467 88.3769 4.37625C88.3769 4.53492 88.4244 4.66917 88.5178 4.77908C88.6111 4.88892 88.7719 4.99883 89.0002 5.10866C89.2319 5.2185 89.5536 5.35483 89.9644 5.51758C90.3669 5.67225 90.7153 5.835 91.0078 6.00583C91.3053 6.17267 91.5328 6.37817 91.6919 6.62233C91.8503 6.8665 91.9294 7.18183 91.9294 7.56833ZM95.1227 0V2.28883C95.1227 2.55333 95.1144 2.81375 95.0977 3.07008C95.0861 3.32233 95.0736 3.51967 95.0611 3.66208H95.1227C95.3052 3.36917 95.5603 3.123 95.8853 2.92358C96.2153 2.72017 96.6361 2.61842 97.1486 2.61842C97.9503 2.61842 98.5953 2.91341 99.0836 3.50341C99.5719 4.08933 99.8161 4.95808 99.8161 6.10967C99.8161 6.87458 99.7044 7.5175 99.4803 8.03833C99.2569 8.55917 98.9411 8.95383 98.5344 9.22241C98.1319 9.48691 97.6578 9.61917 97.1119 9.61917C96.5994 9.61917 96.1844 9.52558 95.8669 9.33842C95.5536 9.14717 95.3078 8.92542 95.1286 8.67308H95.0253L94.7628 9.49708H93.6886V0H95.1227ZM96.7703 3.78417C96.3636 3.78417 96.0403 3.86558 95.8003 4.02833C95.5636 4.19108 95.3928 4.43525 95.2869 4.76075C95.1819 5.08216 95.1269 5.49117 95.1227 5.98758V6.11575C95.1227 6.8685 95.2403 7.44425 95.4769 7.843C95.7169 8.24183 96.1519 8.44116 96.7828 8.44116C97.2828 8.44116 97.6678 8.23975 97.9361 7.83692C98.2044 7.43 98.3394 6.84817 98.3394 6.09133C98.3394 5.32633 98.2044 4.75058 97.9361 4.364C97.6719 3.9775 97.2828 3.78417 96.7703 3.78417ZM100.665 2.7405H102.228L103.614 6.59792C103.674 6.77292 103.729 6.94583 103.778 7.11675C103.831 7.28358 103.876 7.44833 103.913 7.61108C103.953 7.77383 103.985 7.93658 104.01 8.09942H104.047C104.088 7.88775 104.144 7.65175 104.218 7.39133C104.295 7.12691 104.38 6.86242 104.474 6.59792L105.804 2.7405H107.349L104.449 10.4248C104.283 10.8642 104.077 11.2386 103.833 11.5478C103.593 11.8612 103.308 12.0972 102.979 12.2558C102.649 12.4187 102.273 12.5 101.849 12.5C101.646 12.5 101.469 12.4878 101.319 12.4634C101.168 12.4431 101.039 12.4207 100.934 12.3962V11.2488C101.019 11.2692 101.127 11.2874 101.258 11.3037C101.388 11.32 101.522 11.3282 101.66 11.3282C101.917 11.3282 102.139 11.2772 102.325 11.1756C102.513 11.0738 102.671 10.9294 102.802 10.7422C102.932 10.5591 103.039 10.3495 103.125 10.1135L103.363 9.47875L100.665 2.7405Z" fill="#212121"/>
</svg>
